G75*
%MOIN*%
%OFA0B0*%
%FSLAX25Y25*%
%IPPOS*%
%LPD*%
%AMOC8*
5,1,8,0,0,1.08239X$1,22.5*
%
%ADD10C,0.00600*%
%ADD11C,0.00000*%
%ADD12OC8,0.06000*%
%ADD13C,0.06000*%
%ADD14R,0.06299X0.05118*%
%ADD15C,0.02978*%
%ADD16C,0.01000*%
%ADD17C,0.02000*%
D10*
X0001300Y0017048D02*
X0001300Y0123347D01*
X0024922Y0146969D01*
X0127284Y0146969D01*
X0150906Y0123347D01*
X0150906Y0017048D01*
X0131221Y0017048D01*
X0131221Y0091851D01*
X0020985Y0091851D01*
X0020985Y0017048D01*
X0001300Y0017048D01*
D11*
X0006812Y0032796D02*
X0006814Y0032927D01*
X0006820Y0033059D01*
X0006830Y0033190D01*
X0006844Y0033321D01*
X0006862Y0033451D01*
X0006884Y0033580D01*
X0006909Y0033709D01*
X0006939Y0033837D01*
X0006973Y0033964D01*
X0007010Y0034091D01*
X0007051Y0034215D01*
X0007096Y0034339D01*
X0007145Y0034461D01*
X0007197Y0034582D01*
X0007253Y0034700D01*
X0007313Y0034818D01*
X0007376Y0034933D01*
X0007443Y0035046D01*
X0007513Y0035158D01*
X0007586Y0035267D01*
X0007662Y0035373D01*
X0007742Y0035478D01*
X0007825Y0035580D01*
X0007911Y0035679D01*
X0008000Y0035776D01*
X0008092Y0035870D01*
X0008187Y0035961D01*
X0008284Y0036050D01*
X0008384Y0036135D01*
X0008487Y0036217D01*
X0008592Y0036296D01*
X0008699Y0036372D01*
X0008809Y0036444D01*
X0008921Y0036513D01*
X0009035Y0036579D01*
X0009150Y0036641D01*
X0009268Y0036700D01*
X0009387Y0036755D01*
X0009508Y0036807D01*
X0009631Y0036854D01*
X0009755Y0036898D01*
X0009880Y0036939D01*
X0010006Y0036975D01*
X0010134Y0037008D01*
X0010262Y0037036D01*
X0010391Y0037061D01*
X0010521Y0037082D01*
X0010651Y0037099D01*
X0010782Y0037112D01*
X0010913Y0037121D01*
X0011044Y0037126D01*
X0011176Y0037127D01*
X0011307Y0037124D01*
X0011439Y0037117D01*
X0011570Y0037106D01*
X0011700Y0037091D01*
X0011830Y0037072D01*
X0011960Y0037049D01*
X0012088Y0037023D01*
X0012216Y0036992D01*
X0012343Y0036957D01*
X0012469Y0036919D01*
X0012593Y0036877D01*
X0012717Y0036831D01*
X0012838Y0036781D01*
X0012958Y0036728D01*
X0013077Y0036671D01*
X0013194Y0036611D01*
X0013308Y0036547D01*
X0013421Y0036479D01*
X0013532Y0036408D01*
X0013641Y0036334D01*
X0013747Y0036257D01*
X0013851Y0036176D01*
X0013952Y0036093D01*
X0014051Y0036006D01*
X0014147Y0035916D01*
X0014240Y0035823D01*
X0014331Y0035728D01*
X0014418Y0035630D01*
X0014503Y0035529D01*
X0014584Y0035426D01*
X0014662Y0035320D01*
X0014737Y0035212D01*
X0014809Y0035102D01*
X0014877Y0034990D01*
X0014942Y0034876D01*
X0015003Y0034759D01*
X0015061Y0034641D01*
X0015115Y0034521D01*
X0015166Y0034400D01*
X0015213Y0034277D01*
X0015256Y0034153D01*
X0015295Y0034028D01*
X0015331Y0033901D01*
X0015362Y0033773D01*
X0015390Y0033645D01*
X0015414Y0033516D01*
X0015434Y0033386D01*
X0015450Y0033255D01*
X0015462Y0033124D01*
X0015470Y0032993D01*
X0015474Y0032862D01*
X0015474Y0032730D01*
X0015470Y0032599D01*
X0015462Y0032468D01*
X0015450Y0032337D01*
X0015434Y0032206D01*
X0015414Y0032076D01*
X0015390Y0031947D01*
X0015362Y0031819D01*
X0015331Y0031691D01*
X0015295Y0031564D01*
X0015256Y0031439D01*
X0015213Y0031315D01*
X0015166Y0031192D01*
X0015115Y0031071D01*
X0015061Y0030951D01*
X0015003Y0030833D01*
X0014942Y0030716D01*
X0014877Y0030602D01*
X0014809Y0030490D01*
X0014737Y0030380D01*
X0014662Y0030272D01*
X0014584Y0030166D01*
X0014503Y0030063D01*
X0014418Y0029962D01*
X0014331Y0029864D01*
X0014240Y0029769D01*
X0014147Y0029676D01*
X0014051Y0029586D01*
X0013952Y0029499D01*
X0013851Y0029416D01*
X0013747Y0029335D01*
X0013641Y0029258D01*
X0013532Y0029184D01*
X0013421Y0029113D01*
X0013309Y0029045D01*
X0013194Y0028981D01*
X0013077Y0028921D01*
X0012958Y0028864D01*
X0012838Y0028811D01*
X0012717Y0028761D01*
X0012593Y0028715D01*
X0012469Y0028673D01*
X0012343Y0028635D01*
X0012216Y0028600D01*
X0012088Y0028569D01*
X0011960Y0028543D01*
X0011830Y0028520D01*
X0011700Y0028501D01*
X0011570Y0028486D01*
X0011439Y0028475D01*
X0011307Y0028468D01*
X0011176Y0028465D01*
X0011044Y0028466D01*
X0010913Y0028471D01*
X0010782Y0028480D01*
X0010651Y0028493D01*
X0010521Y0028510D01*
X0010391Y0028531D01*
X0010262Y0028556D01*
X0010134Y0028584D01*
X0010006Y0028617D01*
X0009880Y0028653D01*
X0009755Y0028694D01*
X0009631Y0028738D01*
X0009508Y0028785D01*
X0009387Y0028837D01*
X0009268Y0028892D01*
X0009150Y0028951D01*
X0009035Y0029013D01*
X0008921Y0029079D01*
X0008809Y0029148D01*
X0008699Y0029220D01*
X0008592Y0029296D01*
X0008487Y0029375D01*
X0008384Y0029457D01*
X0008284Y0029542D01*
X0008187Y0029631D01*
X0008092Y0029722D01*
X0008000Y0029816D01*
X0007911Y0029913D01*
X0007825Y0030012D01*
X0007742Y0030114D01*
X0007662Y0030219D01*
X0007586Y0030325D01*
X0007513Y0030434D01*
X0007443Y0030546D01*
X0007376Y0030659D01*
X0007313Y0030774D01*
X0007253Y0030892D01*
X0007197Y0031010D01*
X0007145Y0031131D01*
X0007096Y0031253D01*
X0007051Y0031377D01*
X0007010Y0031501D01*
X0006973Y0031628D01*
X0006939Y0031755D01*
X0006909Y0031883D01*
X0006884Y0032012D01*
X0006862Y0032141D01*
X0006844Y0032271D01*
X0006830Y0032402D01*
X0006820Y0032533D01*
X0006814Y0032665D01*
X0006812Y0032796D01*
X0006812Y0056418D02*
X0006814Y0056549D01*
X0006820Y0056681D01*
X0006830Y0056812D01*
X0006844Y0056943D01*
X0006862Y0057073D01*
X0006884Y0057202D01*
X0006909Y0057331D01*
X0006939Y0057459D01*
X0006973Y0057586D01*
X0007010Y0057713D01*
X0007051Y0057837D01*
X0007096Y0057961D01*
X0007145Y0058083D01*
X0007197Y0058204D01*
X0007253Y0058322D01*
X0007313Y0058440D01*
X0007376Y0058555D01*
X0007443Y0058668D01*
X0007513Y0058780D01*
X0007586Y0058889D01*
X0007662Y0058995D01*
X0007742Y0059100D01*
X0007825Y0059202D01*
X0007911Y0059301D01*
X0008000Y0059398D01*
X0008092Y0059492D01*
X0008187Y0059583D01*
X0008284Y0059672D01*
X0008384Y0059757D01*
X0008487Y0059839D01*
X0008592Y0059918D01*
X0008699Y0059994D01*
X0008809Y0060066D01*
X0008921Y0060135D01*
X0009035Y0060201D01*
X0009150Y0060263D01*
X0009268Y0060322D01*
X0009387Y0060377D01*
X0009508Y0060429D01*
X0009631Y0060476D01*
X0009755Y0060520D01*
X0009880Y0060561D01*
X0010006Y0060597D01*
X0010134Y0060630D01*
X0010262Y0060658D01*
X0010391Y0060683D01*
X0010521Y0060704D01*
X0010651Y0060721D01*
X0010782Y0060734D01*
X0010913Y0060743D01*
X0011044Y0060748D01*
X0011176Y0060749D01*
X0011307Y0060746D01*
X0011439Y0060739D01*
X0011570Y0060728D01*
X0011700Y0060713D01*
X0011830Y0060694D01*
X0011960Y0060671D01*
X0012088Y0060645D01*
X0012216Y0060614D01*
X0012343Y0060579D01*
X0012469Y0060541D01*
X0012593Y0060499D01*
X0012717Y0060453D01*
X0012838Y0060403D01*
X0012958Y0060350D01*
X0013077Y0060293D01*
X0013194Y0060233D01*
X0013308Y0060169D01*
X0013421Y0060101D01*
X0013532Y0060030D01*
X0013641Y0059956D01*
X0013747Y0059879D01*
X0013851Y0059798D01*
X0013952Y0059715D01*
X0014051Y0059628D01*
X0014147Y0059538D01*
X0014240Y0059445D01*
X0014331Y0059350D01*
X0014418Y0059252D01*
X0014503Y0059151D01*
X0014584Y0059048D01*
X0014662Y0058942D01*
X0014737Y0058834D01*
X0014809Y0058724D01*
X0014877Y0058612D01*
X0014942Y0058498D01*
X0015003Y0058381D01*
X0015061Y0058263D01*
X0015115Y0058143D01*
X0015166Y0058022D01*
X0015213Y0057899D01*
X0015256Y0057775D01*
X0015295Y0057650D01*
X0015331Y0057523D01*
X0015362Y0057395D01*
X0015390Y0057267D01*
X0015414Y0057138D01*
X0015434Y0057008D01*
X0015450Y0056877D01*
X0015462Y0056746D01*
X0015470Y0056615D01*
X0015474Y0056484D01*
X0015474Y0056352D01*
X0015470Y0056221D01*
X0015462Y0056090D01*
X0015450Y0055959D01*
X0015434Y0055828D01*
X0015414Y0055698D01*
X0015390Y0055569D01*
X0015362Y0055441D01*
X0015331Y0055313D01*
X0015295Y0055186D01*
X0015256Y0055061D01*
X0015213Y0054937D01*
X0015166Y0054814D01*
X0015115Y0054693D01*
X0015061Y0054573D01*
X0015003Y0054455D01*
X0014942Y0054338D01*
X0014877Y0054224D01*
X0014809Y0054112D01*
X0014737Y0054002D01*
X0014662Y0053894D01*
X0014584Y0053788D01*
X0014503Y0053685D01*
X0014418Y0053584D01*
X0014331Y0053486D01*
X0014240Y0053391D01*
X0014147Y0053298D01*
X0014051Y0053208D01*
X0013952Y0053121D01*
X0013851Y0053038D01*
X0013747Y0052957D01*
X0013641Y0052880D01*
X0013532Y0052806D01*
X0013421Y0052735D01*
X0013309Y0052667D01*
X0013194Y0052603D01*
X0013077Y0052543D01*
X0012958Y0052486D01*
X0012838Y0052433D01*
X0012717Y0052383D01*
X0012593Y0052337D01*
X0012469Y0052295D01*
X0012343Y0052257D01*
X0012216Y0052222D01*
X0012088Y0052191D01*
X0011960Y0052165D01*
X0011830Y0052142D01*
X0011700Y0052123D01*
X0011570Y0052108D01*
X0011439Y0052097D01*
X0011307Y0052090D01*
X0011176Y0052087D01*
X0011044Y0052088D01*
X0010913Y0052093D01*
X0010782Y0052102D01*
X0010651Y0052115D01*
X0010521Y0052132D01*
X0010391Y0052153D01*
X0010262Y0052178D01*
X0010134Y0052206D01*
X0010006Y0052239D01*
X0009880Y0052275D01*
X0009755Y0052316D01*
X0009631Y0052360D01*
X0009508Y0052407D01*
X0009387Y0052459D01*
X0009268Y0052514D01*
X0009150Y0052573D01*
X0009035Y0052635D01*
X0008921Y0052701D01*
X0008809Y0052770D01*
X0008699Y0052842D01*
X0008592Y0052918D01*
X0008487Y0052997D01*
X0008384Y0053079D01*
X0008284Y0053164D01*
X0008187Y0053253D01*
X0008092Y0053344D01*
X0008000Y0053438D01*
X0007911Y0053535D01*
X0007825Y0053634D01*
X0007742Y0053736D01*
X0007662Y0053841D01*
X0007586Y0053947D01*
X0007513Y0054056D01*
X0007443Y0054168D01*
X0007376Y0054281D01*
X0007313Y0054396D01*
X0007253Y0054514D01*
X0007197Y0054632D01*
X0007145Y0054753D01*
X0007096Y0054875D01*
X0007051Y0054999D01*
X0007010Y0055123D01*
X0006973Y0055250D01*
X0006939Y0055377D01*
X0006909Y0055505D01*
X0006884Y0055634D01*
X0006862Y0055763D01*
X0006844Y0055893D01*
X0006830Y0056024D01*
X0006820Y0056155D01*
X0006814Y0056287D01*
X0006812Y0056418D01*
X0136733Y0056418D02*
X0136735Y0056549D01*
X0136741Y0056681D01*
X0136751Y0056812D01*
X0136765Y0056943D01*
X0136783Y0057073D01*
X0136805Y0057202D01*
X0136830Y0057331D01*
X0136860Y0057459D01*
X0136894Y0057586D01*
X0136931Y0057713D01*
X0136972Y0057837D01*
X0137017Y0057961D01*
X0137066Y0058083D01*
X0137118Y0058204D01*
X0137174Y0058322D01*
X0137234Y0058440D01*
X0137297Y0058555D01*
X0137364Y0058668D01*
X0137434Y0058780D01*
X0137507Y0058889D01*
X0137583Y0058995D01*
X0137663Y0059100D01*
X0137746Y0059202D01*
X0137832Y0059301D01*
X0137921Y0059398D01*
X0138013Y0059492D01*
X0138108Y0059583D01*
X0138205Y0059672D01*
X0138305Y0059757D01*
X0138408Y0059839D01*
X0138513Y0059918D01*
X0138620Y0059994D01*
X0138730Y0060066D01*
X0138842Y0060135D01*
X0138956Y0060201D01*
X0139071Y0060263D01*
X0139189Y0060322D01*
X0139308Y0060377D01*
X0139429Y0060429D01*
X0139552Y0060476D01*
X0139676Y0060520D01*
X0139801Y0060561D01*
X0139927Y0060597D01*
X0140055Y0060630D01*
X0140183Y0060658D01*
X0140312Y0060683D01*
X0140442Y0060704D01*
X0140572Y0060721D01*
X0140703Y0060734D01*
X0140834Y0060743D01*
X0140965Y0060748D01*
X0141097Y0060749D01*
X0141228Y0060746D01*
X0141360Y0060739D01*
X0141491Y0060728D01*
X0141621Y0060713D01*
X0141751Y0060694D01*
X0141881Y0060671D01*
X0142009Y0060645D01*
X0142137Y0060614D01*
X0142264Y0060579D01*
X0142390Y0060541D01*
X0142514Y0060499D01*
X0142638Y0060453D01*
X0142759Y0060403D01*
X0142879Y0060350D01*
X0142998Y0060293D01*
X0143115Y0060233D01*
X0143229Y0060169D01*
X0143342Y0060101D01*
X0143453Y0060030D01*
X0143562Y0059956D01*
X0143668Y0059879D01*
X0143772Y0059798D01*
X0143873Y0059715D01*
X0143972Y0059628D01*
X0144068Y0059538D01*
X0144161Y0059445D01*
X0144252Y0059350D01*
X0144339Y0059252D01*
X0144424Y0059151D01*
X0144505Y0059048D01*
X0144583Y0058942D01*
X0144658Y0058834D01*
X0144730Y0058724D01*
X0144798Y0058612D01*
X0144863Y0058498D01*
X0144924Y0058381D01*
X0144982Y0058263D01*
X0145036Y0058143D01*
X0145087Y0058022D01*
X0145134Y0057899D01*
X0145177Y0057775D01*
X0145216Y0057650D01*
X0145252Y0057523D01*
X0145283Y0057395D01*
X0145311Y0057267D01*
X0145335Y0057138D01*
X0145355Y0057008D01*
X0145371Y0056877D01*
X0145383Y0056746D01*
X0145391Y0056615D01*
X0145395Y0056484D01*
X0145395Y0056352D01*
X0145391Y0056221D01*
X0145383Y0056090D01*
X0145371Y0055959D01*
X0145355Y0055828D01*
X0145335Y0055698D01*
X0145311Y0055569D01*
X0145283Y0055441D01*
X0145252Y0055313D01*
X0145216Y0055186D01*
X0145177Y0055061D01*
X0145134Y0054937D01*
X0145087Y0054814D01*
X0145036Y0054693D01*
X0144982Y0054573D01*
X0144924Y0054455D01*
X0144863Y0054338D01*
X0144798Y0054224D01*
X0144730Y0054112D01*
X0144658Y0054002D01*
X0144583Y0053894D01*
X0144505Y0053788D01*
X0144424Y0053685D01*
X0144339Y0053584D01*
X0144252Y0053486D01*
X0144161Y0053391D01*
X0144068Y0053298D01*
X0143972Y0053208D01*
X0143873Y0053121D01*
X0143772Y0053038D01*
X0143668Y0052957D01*
X0143562Y0052880D01*
X0143453Y0052806D01*
X0143342Y0052735D01*
X0143230Y0052667D01*
X0143115Y0052603D01*
X0142998Y0052543D01*
X0142879Y0052486D01*
X0142759Y0052433D01*
X0142638Y0052383D01*
X0142514Y0052337D01*
X0142390Y0052295D01*
X0142264Y0052257D01*
X0142137Y0052222D01*
X0142009Y0052191D01*
X0141881Y0052165D01*
X0141751Y0052142D01*
X0141621Y0052123D01*
X0141491Y0052108D01*
X0141360Y0052097D01*
X0141228Y0052090D01*
X0141097Y0052087D01*
X0140965Y0052088D01*
X0140834Y0052093D01*
X0140703Y0052102D01*
X0140572Y0052115D01*
X0140442Y0052132D01*
X0140312Y0052153D01*
X0140183Y0052178D01*
X0140055Y0052206D01*
X0139927Y0052239D01*
X0139801Y0052275D01*
X0139676Y0052316D01*
X0139552Y0052360D01*
X0139429Y0052407D01*
X0139308Y0052459D01*
X0139189Y0052514D01*
X0139071Y0052573D01*
X0138956Y0052635D01*
X0138842Y0052701D01*
X0138730Y0052770D01*
X0138620Y0052842D01*
X0138513Y0052918D01*
X0138408Y0052997D01*
X0138305Y0053079D01*
X0138205Y0053164D01*
X0138108Y0053253D01*
X0138013Y0053344D01*
X0137921Y0053438D01*
X0137832Y0053535D01*
X0137746Y0053634D01*
X0137663Y0053736D01*
X0137583Y0053841D01*
X0137507Y0053947D01*
X0137434Y0054056D01*
X0137364Y0054168D01*
X0137297Y0054281D01*
X0137234Y0054396D01*
X0137174Y0054514D01*
X0137118Y0054632D01*
X0137066Y0054753D01*
X0137017Y0054875D01*
X0136972Y0054999D01*
X0136931Y0055123D01*
X0136894Y0055250D01*
X0136860Y0055377D01*
X0136830Y0055505D01*
X0136805Y0055634D01*
X0136783Y0055763D01*
X0136765Y0055893D01*
X0136751Y0056024D01*
X0136741Y0056155D01*
X0136735Y0056287D01*
X0136733Y0056418D01*
X0136733Y0032796D02*
X0136735Y0032927D01*
X0136741Y0033059D01*
X0136751Y0033190D01*
X0136765Y0033321D01*
X0136783Y0033451D01*
X0136805Y0033580D01*
X0136830Y0033709D01*
X0136860Y0033837D01*
X0136894Y0033964D01*
X0136931Y0034091D01*
X0136972Y0034215D01*
X0137017Y0034339D01*
X0137066Y0034461D01*
X0137118Y0034582D01*
X0137174Y0034700D01*
X0137234Y0034818D01*
X0137297Y0034933D01*
X0137364Y0035046D01*
X0137434Y0035158D01*
X0137507Y0035267D01*
X0137583Y0035373D01*
X0137663Y0035478D01*
X0137746Y0035580D01*
X0137832Y0035679D01*
X0137921Y0035776D01*
X0138013Y0035870D01*
X0138108Y0035961D01*
X0138205Y0036050D01*
X0138305Y0036135D01*
X0138408Y0036217D01*
X0138513Y0036296D01*
X0138620Y0036372D01*
X0138730Y0036444D01*
X0138842Y0036513D01*
X0138956Y0036579D01*
X0139071Y0036641D01*
X0139189Y0036700D01*
X0139308Y0036755D01*
X0139429Y0036807D01*
X0139552Y0036854D01*
X0139676Y0036898D01*
X0139801Y0036939D01*
X0139927Y0036975D01*
X0140055Y0037008D01*
X0140183Y0037036D01*
X0140312Y0037061D01*
X0140442Y0037082D01*
X0140572Y0037099D01*
X0140703Y0037112D01*
X0140834Y0037121D01*
X0140965Y0037126D01*
X0141097Y0037127D01*
X0141228Y0037124D01*
X0141360Y0037117D01*
X0141491Y0037106D01*
X0141621Y0037091D01*
X0141751Y0037072D01*
X0141881Y0037049D01*
X0142009Y0037023D01*
X0142137Y0036992D01*
X0142264Y0036957D01*
X0142390Y0036919D01*
X0142514Y0036877D01*
X0142638Y0036831D01*
X0142759Y0036781D01*
X0142879Y0036728D01*
X0142998Y0036671D01*
X0143115Y0036611D01*
X0143229Y0036547D01*
X0143342Y0036479D01*
X0143453Y0036408D01*
X0143562Y0036334D01*
X0143668Y0036257D01*
X0143772Y0036176D01*
X0143873Y0036093D01*
X0143972Y0036006D01*
X0144068Y0035916D01*
X0144161Y0035823D01*
X0144252Y0035728D01*
X0144339Y0035630D01*
X0144424Y0035529D01*
X0144505Y0035426D01*
X0144583Y0035320D01*
X0144658Y0035212D01*
X0144730Y0035102D01*
X0144798Y0034990D01*
X0144863Y0034876D01*
X0144924Y0034759D01*
X0144982Y0034641D01*
X0145036Y0034521D01*
X0145087Y0034400D01*
X0145134Y0034277D01*
X0145177Y0034153D01*
X0145216Y0034028D01*
X0145252Y0033901D01*
X0145283Y0033773D01*
X0145311Y0033645D01*
X0145335Y0033516D01*
X0145355Y0033386D01*
X0145371Y0033255D01*
X0145383Y0033124D01*
X0145391Y0032993D01*
X0145395Y0032862D01*
X0145395Y0032730D01*
X0145391Y0032599D01*
X0145383Y0032468D01*
X0145371Y0032337D01*
X0145355Y0032206D01*
X0145335Y0032076D01*
X0145311Y0031947D01*
X0145283Y0031819D01*
X0145252Y0031691D01*
X0145216Y0031564D01*
X0145177Y0031439D01*
X0145134Y0031315D01*
X0145087Y0031192D01*
X0145036Y0031071D01*
X0144982Y0030951D01*
X0144924Y0030833D01*
X0144863Y0030716D01*
X0144798Y0030602D01*
X0144730Y0030490D01*
X0144658Y0030380D01*
X0144583Y0030272D01*
X0144505Y0030166D01*
X0144424Y0030063D01*
X0144339Y0029962D01*
X0144252Y0029864D01*
X0144161Y0029769D01*
X0144068Y0029676D01*
X0143972Y0029586D01*
X0143873Y0029499D01*
X0143772Y0029416D01*
X0143668Y0029335D01*
X0143562Y0029258D01*
X0143453Y0029184D01*
X0143342Y0029113D01*
X0143230Y0029045D01*
X0143115Y0028981D01*
X0142998Y0028921D01*
X0142879Y0028864D01*
X0142759Y0028811D01*
X0142638Y0028761D01*
X0142514Y0028715D01*
X0142390Y0028673D01*
X0142264Y0028635D01*
X0142137Y0028600D01*
X0142009Y0028569D01*
X0141881Y0028543D01*
X0141751Y0028520D01*
X0141621Y0028501D01*
X0141491Y0028486D01*
X0141360Y0028475D01*
X0141228Y0028468D01*
X0141097Y0028465D01*
X0140965Y0028466D01*
X0140834Y0028471D01*
X0140703Y0028480D01*
X0140572Y0028493D01*
X0140442Y0028510D01*
X0140312Y0028531D01*
X0140183Y0028556D01*
X0140055Y0028584D01*
X0139927Y0028617D01*
X0139801Y0028653D01*
X0139676Y0028694D01*
X0139552Y0028738D01*
X0139429Y0028785D01*
X0139308Y0028837D01*
X0139189Y0028892D01*
X0139071Y0028951D01*
X0138956Y0029013D01*
X0138842Y0029079D01*
X0138730Y0029148D01*
X0138620Y0029220D01*
X0138513Y0029296D01*
X0138408Y0029375D01*
X0138305Y0029457D01*
X0138205Y0029542D01*
X0138108Y0029631D01*
X0138013Y0029722D01*
X0137921Y0029816D01*
X0137832Y0029913D01*
X0137746Y0030012D01*
X0137663Y0030114D01*
X0137583Y0030219D01*
X0137507Y0030325D01*
X0137434Y0030434D01*
X0137364Y0030546D01*
X0137297Y0030659D01*
X0137234Y0030774D01*
X0137174Y0030892D01*
X0137118Y0031010D01*
X0137066Y0031131D01*
X0137017Y0031253D01*
X0136972Y0031377D01*
X0136931Y0031501D01*
X0136894Y0031628D01*
X0136860Y0031755D01*
X0136830Y0031883D01*
X0136805Y0032012D01*
X0136783Y0032141D01*
X0136765Y0032271D01*
X0136751Y0032402D01*
X0136741Y0032533D01*
X0136735Y0032665D01*
X0136733Y0032796D01*
D12*
X0048662Y0115552D03*
X0048662Y0125552D03*
X0038662Y0125552D03*
X0038662Y0115552D03*
X0028662Y0115552D03*
X0028662Y0125552D03*
D13*
X0116410Y0124410D02*
X0122410Y0124410D01*
X0122410Y0114410D02*
X0116410Y0114410D01*
D14*
X0016859Y0117048D03*
X0016859Y0124922D03*
D15*
X0076800Y0099048D03*
D16*
X0014300Y0099048D01*
X0006300Y0107048D01*
X0006300Y0122048D01*
X0009174Y0124922D01*
X0016859Y0124922D01*
X0028032Y0124922D01*
X0028662Y0125552D01*
X0027166Y0117048D02*
X0028662Y0115552D01*
X0027166Y0117048D02*
X0016859Y0117048D01*
D17*
X0038662Y0115552D02*
X0043262Y0110952D01*
X0097704Y0110952D01*
X0101162Y0114410D01*
X0119410Y0114410D01*
X0119410Y0124410D02*
X0119272Y0124548D01*
X0105800Y0124548D01*
X0096804Y0115552D01*
X0048662Y0115552D01*
M02*
