G75*
%MOIN*%
%OFA0B0*%
%FSLAX25Y25*%
%IPPOS*%
%LPD*%
%AMOC8*
5,1,8,0,0,1.08239X$1,22.5*
%
%ADD10OC8,0.06000*%
%ADD11C,0.06000*%
%ADD12R,0.01181X0.06299*%
%ADD13C,0.01000*%
%ADD14C,0.02978*%
D10*
X0028662Y0115552D03*
X0028662Y0125552D03*
X0038662Y0125552D03*
X0038662Y0115552D03*
X0048662Y0115552D03*
X0048662Y0125552D03*
D11*
X0116410Y0124410D02*
X0122410Y0124410D01*
X0122410Y0114410D02*
X0116410Y0114410D01*
D12*
X0087639Y0108288D03*
X0085080Y0108288D03*
X0082520Y0108288D03*
X0079961Y0108288D03*
X0077402Y0108288D03*
X0074843Y0108288D03*
X0072284Y0108288D03*
X0069725Y0108288D03*
X0067166Y0108288D03*
X0064607Y0108288D03*
X0064607Y0130335D03*
X0067166Y0130335D03*
X0069725Y0130335D03*
X0072284Y0130335D03*
X0074843Y0130335D03*
X0077402Y0130335D03*
X0079961Y0130335D03*
X0082520Y0130335D03*
X0085080Y0130335D03*
X0087639Y0130335D03*
D13*
X0078800Y0124548D02*
X0056800Y0124548D01*
X0048800Y0132548D01*
X0040300Y0132548D01*
X0038800Y0131048D01*
X0038800Y0125690D01*
X0038662Y0125552D01*
X0048662Y0125552D02*
X0052166Y0122048D01*
X0076300Y0122048D01*
X0079961Y0118387D01*
X0079961Y0108288D01*
X0082520Y0108288D02*
X0082520Y0103769D01*
X0080800Y0102048D01*
X0074300Y0102048D01*
X0072800Y0103548D01*
X0072300Y0104048D01*
X0070800Y0102548D01*
X0070300Y0102048D01*
X0072300Y0102048D01*
X0074300Y0102048D01*
X0072800Y0102548D02*
X0072300Y0103048D01*
X0071800Y0102548D01*
X0070800Y0102548D01*
X0070300Y0102048D02*
X0042166Y0102048D01*
X0028662Y0115552D01*
X0072284Y0108288D02*
X0072284Y0102064D01*
X0072300Y0102048D01*
X0072300Y0103048D02*
X0072300Y0103548D01*
X0072300Y0104048D01*
X0072300Y0103548D02*
X0072800Y0103548D01*
X0076800Y0099048D02*
X0085800Y0099048D01*
X0087639Y0100887D01*
X0087639Y0108288D01*
X0085080Y0108288D02*
X0085080Y0118269D01*
X0078800Y0124548D01*
D14*
X0076800Y0099048D03*
M02*
