G75*
%MOIN*%
%OFA0B0*%
%FSLAX25Y25*%
%IPPOS*%
%LPD*%
%AMOC8*
5,1,8,0,0,1.08239X$1,22.5*
%
%ADD10C,0.10643*%
%ADD11C,0.09461*%
%ADD12R,0.07099X0.05918*%
%ADD13R,0.05918X0.07099*%
%ADD14R,0.05599X0.09599*%
%ADD15R,0.14973X0.09461*%
%ADD16R,0.18910X0.04737*%
%ADD17R,0.14186X0.07099*%
%ADD18OC8,0.06800*%
%ADD19C,0.01480*%
%ADD20R,0.05524X0.05524*%
%ADD21OC8,0.07400*%
%ADD22C,0.06800*%
%ADD23R,0.04737X0.06312*%
%ADD24R,0.05918X0.06706*%
%ADD25R,0.06706X0.05918*%
%ADD26R,0.13398X0.07887*%
%ADD27R,0.03359X0.07690*%
%ADD28R,0.13792X0.10288*%
%ADD29C,0.06737*%
%ADD30R,0.04737X0.05721*%
%ADD31R,0.09599X0.05599*%
%ADD32R,0.09461X0.14973*%
%ADD33C,0.03778*%
D10*
X0084012Y0026185D03*
X0084012Y0097051D03*
X0363540Y0097051D03*
X0363540Y0124610D03*
X0363540Y0026185D03*
D11*
X0084012Y0124610D03*
X0087595Y0369000D03*
X0062595Y0369000D03*
X0152595Y0374000D03*
X0170095Y0389000D03*
D12*
X0200095Y0360437D03*
X0200095Y0352563D03*
X0210095Y0352563D03*
X0210095Y0360437D03*
X0242595Y0360240D03*
X0242595Y0352760D03*
X0242595Y0340437D03*
X0242595Y0332563D03*
X0252595Y0332563D03*
X0252595Y0340437D03*
X0255095Y0352563D03*
X0255095Y0360437D03*
X0305095Y0360240D03*
X0305095Y0352760D03*
X0317595Y0352563D03*
X0317595Y0360437D03*
X0327595Y0360437D03*
X0327595Y0352563D03*
X0372595Y0325240D03*
X0372595Y0317760D03*
X0320095Y0260437D03*
X0320095Y0252563D03*
X0327595Y0235240D03*
X0327595Y0227760D03*
X0285095Y0227563D03*
X0285095Y0235437D03*
X0307595Y0277563D03*
X0307595Y0285437D03*
X0375095Y0222937D03*
X0375095Y0215063D03*
X0220095Y0212740D03*
X0220095Y0205260D03*
X0147595Y0215063D03*
X0147595Y0222937D03*
X0080095Y0312760D03*
X0080095Y0320240D03*
X0175095Y0320063D03*
X0175095Y0327937D03*
X0187595Y0327937D03*
X0187595Y0320063D03*
D13*
X0186335Y0339000D03*
X0178855Y0339000D03*
X0166532Y0306500D03*
X0158658Y0306500D03*
X0158658Y0294000D03*
X0166532Y0294000D03*
X0143835Y0316500D03*
X0136355Y0316500D03*
X0109032Y0344000D03*
X0101158Y0344000D03*
X0079032Y0301500D03*
X0071158Y0301500D03*
X0071158Y0289000D03*
X0079032Y0289000D03*
X0078855Y0269000D03*
X0086335Y0269000D03*
X0123855Y0206500D03*
X0131335Y0206500D03*
X0163658Y0246500D03*
X0171532Y0246500D03*
X0206158Y0246500D03*
X0214032Y0246500D03*
X0216532Y0294000D03*
X0208658Y0294000D03*
X0208658Y0306500D03*
X0216532Y0306500D03*
X0313855Y0311500D03*
X0321335Y0311500D03*
X0321335Y0299000D03*
X0313855Y0299000D03*
X0341158Y0349000D03*
X0349032Y0349000D03*
X0371158Y0301500D03*
X0379032Y0301500D03*
X0379032Y0286500D03*
X0371158Y0286500D03*
X0371355Y0256500D03*
X0378835Y0256500D03*
X0269032Y0144000D03*
X0261158Y0144000D03*
X0261158Y0131500D03*
X0269032Y0131500D03*
X0161532Y0131500D03*
X0153658Y0131500D03*
X0153658Y0144000D03*
X0161532Y0144000D03*
D14*
X0161694Y0259299D03*
X0152595Y0259299D03*
X0143497Y0259299D03*
X0185997Y0259299D03*
X0195095Y0259299D03*
X0204194Y0259299D03*
D15*
X0195095Y0283701D03*
X0152595Y0283701D03*
D16*
X0163028Y0222937D03*
X0163028Y0215063D03*
D17*
X0183501Y0205614D03*
X0183501Y0232386D03*
D18*
X0187595Y0144000D03*
X0177595Y0144000D03*
X0177595Y0134000D03*
X0187595Y0134000D03*
X0197595Y0134000D03*
X0197595Y0144000D03*
X0285095Y0141500D03*
X0285095Y0131500D03*
X0295095Y0131500D03*
X0295095Y0141500D03*
X0305095Y0141500D03*
X0305095Y0131500D03*
D19*
X0288117Y0353245D02*
X0288857Y0352505D01*
X0286405Y0352505D01*
X0284672Y0354238D01*
X0284672Y0356690D01*
X0286405Y0358423D01*
X0288857Y0358423D01*
X0290590Y0356690D01*
X0290590Y0354238D01*
X0288857Y0352505D01*
X0288397Y0353615D01*
X0286865Y0353615D01*
X0285782Y0354698D01*
X0285782Y0356230D01*
X0286865Y0357313D01*
X0288397Y0357313D01*
X0289480Y0356230D01*
X0289480Y0354698D01*
X0288397Y0353615D01*
X0287937Y0354725D01*
X0287325Y0354725D01*
X0286892Y0355158D01*
X0286892Y0355770D01*
X0287325Y0356203D01*
X0287937Y0356203D01*
X0288370Y0355770D01*
X0288370Y0355158D01*
X0287937Y0354725D01*
X0281046Y0360317D02*
X0281786Y0359577D01*
X0279334Y0359577D01*
X0277601Y0361310D01*
X0277601Y0363762D01*
X0279334Y0365495D01*
X0281786Y0365495D01*
X0283519Y0363762D01*
X0283519Y0361310D01*
X0281786Y0359577D01*
X0281326Y0360687D01*
X0279794Y0360687D01*
X0278711Y0361770D01*
X0278711Y0363302D01*
X0279794Y0364385D01*
X0281326Y0364385D01*
X0282409Y0363302D01*
X0282409Y0361770D01*
X0281326Y0360687D01*
X0280866Y0361797D01*
X0280254Y0361797D01*
X0279821Y0362230D01*
X0279821Y0362842D01*
X0280254Y0363275D01*
X0280866Y0363275D01*
X0281299Y0362842D01*
X0281299Y0362230D01*
X0280866Y0361797D01*
X0268145Y0375183D02*
X0267405Y0375923D01*
X0269857Y0375923D01*
X0271590Y0374190D01*
X0271590Y0371738D01*
X0269857Y0370005D01*
X0267405Y0370005D01*
X0265672Y0371738D01*
X0265672Y0374190D01*
X0267405Y0375923D01*
X0267865Y0374813D01*
X0269397Y0374813D01*
X0270480Y0373730D01*
X0270480Y0372198D01*
X0269397Y0371115D01*
X0267865Y0371115D01*
X0266782Y0372198D01*
X0266782Y0373730D01*
X0267865Y0374813D01*
X0268325Y0373703D01*
X0268937Y0373703D01*
X0269370Y0373270D01*
X0269370Y0372658D01*
X0268937Y0372225D01*
X0268325Y0372225D01*
X0267892Y0372658D01*
X0267892Y0373270D01*
X0268325Y0373703D01*
X0261074Y0382255D02*
X0260334Y0382995D01*
X0262786Y0382995D01*
X0264519Y0381262D01*
X0264519Y0378810D01*
X0262786Y0377077D01*
X0260334Y0377077D01*
X0258601Y0378810D01*
X0258601Y0381262D01*
X0260334Y0382995D01*
X0260794Y0381885D01*
X0262326Y0381885D01*
X0263409Y0380802D01*
X0263409Y0379270D01*
X0262326Y0378187D01*
X0260794Y0378187D01*
X0259711Y0379270D01*
X0259711Y0380802D01*
X0260794Y0381885D01*
X0261254Y0380775D01*
X0261866Y0380775D01*
X0262299Y0380342D01*
X0262299Y0379730D01*
X0261866Y0379297D01*
X0261254Y0379297D01*
X0260821Y0379730D01*
X0260821Y0380342D01*
X0261254Y0380775D01*
X0190850Y0380522D02*
X0191590Y0381262D01*
X0191590Y0378810D01*
X0189857Y0377077D01*
X0187405Y0377077D01*
X0185672Y0378810D01*
X0185672Y0381262D01*
X0187405Y0382995D01*
X0189857Y0382995D01*
X0191590Y0381262D01*
X0190480Y0380802D01*
X0190480Y0379270D01*
X0189397Y0378187D01*
X0187865Y0378187D01*
X0186782Y0379270D01*
X0186782Y0380802D01*
X0187865Y0381885D01*
X0189397Y0381885D01*
X0190480Y0380802D01*
X0189370Y0380342D01*
X0189370Y0379730D01*
X0188937Y0379297D01*
X0188325Y0379297D01*
X0187892Y0379730D01*
X0187892Y0380342D01*
X0188325Y0380775D01*
X0188937Y0380775D01*
X0189370Y0380342D01*
X0183779Y0373450D02*
X0184519Y0374190D01*
X0184519Y0371738D01*
X0182786Y0370005D01*
X0180334Y0370005D01*
X0178601Y0371738D01*
X0178601Y0374190D01*
X0180334Y0375923D01*
X0182786Y0375923D01*
X0184519Y0374190D01*
X0183409Y0373730D01*
X0183409Y0372198D01*
X0182326Y0371115D01*
X0180794Y0371115D01*
X0179711Y0372198D01*
X0179711Y0373730D01*
X0180794Y0374813D01*
X0182326Y0374813D01*
X0183409Y0373730D01*
X0182299Y0373270D01*
X0182299Y0372658D01*
X0181866Y0372225D01*
X0181254Y0372225D01*
X0180821Y0372658D01*
X0180821Y0373270D01*
X0181254Y0373703D01*
X0181866Y0373703D01*
X0182299Y0373270D01*
X0168912Y0362050D02*
X0168172Y0361310D01*
X0168172Y0363762D01*
X0169905Y0365495D01*
X0172357Y0365495D01*
X0174090Y0363762D01*
X0174090Y0361310D01*
X0172357Y0359577D01*
X0169905Y0359577D01*
X0168172Y0361310D01*
X0169282Y0361770D01*
X0169282Y0363302D01*
X0170365Y0364385D01*
X0171897Y0364385D01*
X0172980Y0363302D01*
X0172980Y0361770D01*
X0171897Y0360687D01*
X0170365Y0360687D01*
X0169282Y0361770D01*
X0170392Y0362230D01*
X0170392Y0362842D01*
X0170825Y0363275D01*
X0171437Y0363275D01*
X0171870Y0362842D01*
X0171870Y0362230D01*
X0171437Y0361797D01*
X0170825Y0361797D01*
X0170392Y0362230D01*
X0161841Y0354978D02*
X0161101Y0354238D01*
X0161101Y0356690D01*
X0162834Y0358423D01*
X0165286Y0358423D01*
X0167019Y0356690D01*
X0167019Y0354238D01*
X0165286Y0352505D01*
X0162834Y0352505D01*
X0161101Y0354238D01*
X0162211Y0354698D01*
X0162211Y0356230D01*
X0163294Y0357313D01*
X0164826Y0357313D01*
X0165909Y0356230D01*
X0165909Y0354698D01*
X0164826Y0353615D01*
X0163294Y0353615D01*
X0162211Y0354698D01*
X0163321Y0355158D01*
X0163321Y0355770D01*
X0163754Y0356203D01*
X0164366Y0356203D01*
X0164799Y0355770D01*
X0164799Y0355158D01*
X0164366Y0354725D01*
X0163754Y0354725D01*
X0163321Y0355158D01*
D20*
X0071729Y0254000D03*
X0063461Y0254000D03*
D21*
X0067595Y0346500D03*
X0057595Y0346500D03*
X0082595Y0346500D03*
X0092595Y0346500D03*
X0207595Y0376500D03*
X0217595Y0376500D03*
X0232595Y0376500D03*
X0242595Y0376500D03*
X0360095Y0346500D03*
X0370095Y0346500D03*
X0385095Y0346500D03*
X0395095Y0346500D03*
D22*
X0390595Y0231500D02*
X0384595Y0231500D01*
X0384595Y0221500D02*
X0390595Y0221500D01*
X0390595Y0211500D02*
X0384595Y0211500D01*
X0384595Y0201500D02*
X0390595Y0201500D01*
X0390595Y0191500D02*
X0384595Y0191500D01*
X0384595Y0181500D02*
X0390595Y0181500D01*
X0302595Y0203500D02*
X0302595Y0209500D01*
X0292595Y0209500D02*
X0292595Y0203500D01*
X0282595Y0203500D02*
X0282595Y0209500D01*
X0272595Y0209500D02*
X0272595Y0203500D01*
X0262595Y0203500D02*
X0262595Y0209500D01*
X0252595Y0209500D02*
X0252595Y0203500D01*
X0242595Y0203500D02*
X0242595Y0209500D01*
X0232595Y0209500D02*
X0232595Y0203500D01*
X0232595Y0228500D02*
X0232595Y0234500D01*
X0242595Y0234500D02*
X0242595Y0228500D01*
X0252595Y0228500D02*
X0252595Y0234500D01*
X0262595Y0234500D02*
X0262595Y0228500D01*
X0272595Y0228500D02*
X0272595Y0234500D01*
X0240595Y0121500D02*
X0234595Y0121500D01*
X0234595Y0111500D02*
X0240595Y0111500D01*
X0220595Y0111500D02*
X0214595Y0111500D01*
X0214595Y0121500D02*
X0220595Y0121500D01*
D23*
X0066335Y0312169D03*
X0058855Y0312169D03*
X0062595Y0320831D03*
X0153855Y0329669D03*
X0161335Y0329669D03*
X0157595Y0338331D03*
X0226355Y0332169D03*
X0233835Y0332169D03*
X0230095Y0340831D03*
X0291355Y0322169D03*
X0298835Y0322169D03*
X0295095Y0330831D03*
X0386355Y0317169D03*
X0393835Y0317169D03*
X0390095Y0325831D03*
D24*
X0348835Y0339000D03*
X0341355Y0339000D03*
X0108835Y0356500D03*
X0101355Y0356500D03*
X0086335Y0254000D03*
X0078855Y0254000D03*
D25*
X0150095Y0190240D03*
X0150095Y0182760D03*
X0150095Y0165240D03*
X0150095Y0157760D03*
X0257595Y0157760D03*
X0257595Y0165240D03*
X0257595Y0182760D03*
X0257595Y0190240D03*
X0265095Y0352760D03*
X0265095Y0360240D03*
X0222595Y0360240D03*
X0222595Y0352760D03*
X0187595Y0352760D03*
X0187595Y0360240D03*
D26*
X0195095Y0180024D03*
X0195095Y0157976D03*
X0302595Y0157976D03*
X0302595Y0180024D03*
D27*
X0285095Y0180024D03*
X0280095Y0180024D03*
X0275095Y0180024D03*
X0270095Y0180024D03*
X0270095Y0157976D03*
X0275095Y0157976D03*
X0280095Y0157976D03*
X0285095Y0157976D03*
X0177595Y0157976D03*
X0172595Y0157976D03*
X0167595Y0157976D03*
X0162595Y0157976D03*
X0162595Y0180024D03*
X0167595Y0180024D03*
X0172595Y0180024D03*
X0177595Y0180024D03*
D28*
X0170095Y0169000D03*
X0277595Y0169000D03*
D29*
X0345095Y0166500D03*
X0345095Y0156500D03*
X0345095Y0146500D03*
X0345095Y0136500D03*
X0355095Y0136500D03*
X0355095Y0146500D03*
X0355095Y0156500D03*
X0355095Y0166500D03*
X0355095Y0176500D03*
X0355095Y0186500D03*
X0345095Y0186500D03*
X0345095Y0176500D03*
X0345095Y0196500D03*
X0345095Y0206500D03*
X0345095Y0216500D03*
X0345095Y0226500D03*
X0345095Y0236500D03*
X0345095Y0246500D03*
X0345095Y0256500D03*
X0345095Y0266500D03*
X0345095Y0276500D03*
X0345095Y0286500D03*
X0345095Y0296500D03*
X0345095Y0306500D03*
X0345095Y0316500D03*
X0355095Y0316500D03*
X0355095Y0306500D03*
X0355095Y0296500D03*
X0355095Y0286500D03*
X0355095Y0276500D03*
X0355095Y0266500D03*
X0355095Y0256500D03*
X0355095Y0246500D03*
X0355095Y0236500D03*
X0355095Y0226500D03*
X0355095Y0216500D03*
X0355095Y0206500D03*
X0355095Y0196500D03*
X0115095Y0196500D03*
X0105095Y0196500D03*
X0105095Y0206500D03*
X0115095Y0206500D03*
X0115095Y0216500D03*
X0105095Y0216500D03*
X0105095Y0226500D03*
X0105095Y0236500D03*
X0115095Y0236500D03*
X0115095Y0226500D03*
X0115095Y0246500D03*
X0105095Y0246500D03*
X0105095Y0256500D03*
X0115095Y0256500D03*
X0115095Y0266500D03*
X0105095Y0266500D03*
X0105095Y0276500D03*
X0115095Y0276500D03*
X0115095Y0286500D03*
X0105095Y0286500D03*
X0105095Y0296500D03*
X0115095Y0296500D03*
X0115095Y0306500D03*
X0105095Y0306500D03*
X0105095Y0316500D03*
X0115095Y0316500D03*
X0115095Y0186500D03*
X0105095Y0186500D03*
X0105095Y0176500D03*
X0115095Y0176500D03*
X0115095Y0166500D03*
X0105095Y0166500D03*
X0105095Y0156500D03*
X0115095Y0156500D03*
X0115095Y0146500D03*
X0105095Y0146500D03*
X0105095Y0136500D03*
X0115095Y0136500D03*
D30*
X0318658Y0286500D03*
X0326532Y0286500D03*
D31*
X0285394Y0260598D03*
X0285394Y0251500D03*
X0285394Y0242402D03*
D32*
X0309796Y0251500D03*
D33*
X0315095Y0234000D03*
X0302595Y0221500D03*
X0297595Y0216500D03*
X0272595Y0241500D03*
X0252595Y0266500D03*
X0227595Y0261500D03*
X0222595Y0261500D03*
X0207595Y0284000D03*
X0227595Y0321500D03*
X0232595Y0346500D03*
X0252595Y0301989D03*
X0260095Y0301989D03*
X0295095Y0336500D03*
X0305095Y0299000D03*
X0335095Y0281500D03*
X0335095Y0261500D03*
X0371084Y0249000D03*
X0375095Y0229000D03*
X0372595Y0276500D03*
X0327595Y0206500D03*
X0317595Y0186500D03*
X0305095Y0151500D03*
X0282595Y0166500D03*
X0277595Y0166500D03*
X0272595Y0166500D03*
X0272595Y0171500D03*
X0277595Y0171500D03*
X0282595Y0171500D03*
X0280095Y0186500D03*
X0275095Y0186500D03*
X0247595Y0189000D03*
X0220095Y0206500D03*
X0220095Y0214000D03*
X0202595Y0206500D03*
X0172595Y0189000D03*
X0167595Y0189000D03*
X0137595Y0186500D03*
X0175095Y0151500D03*
X0195095Y0151500D03*
X0172595Y0126500D03*
X0082595Y0186500D03*
X0152595Y0246500D03*
X0140095Y0286500D03*
X0095095Y0254000D03*
X0275095Y0139000D03*
X0278155Y0136435D03*
X0280095Y0151500D03*
X0367595Y0161500D03*
M02*
