%
M48
M72
T01C0.01378
T02C0.03200
T03C0.03937
T04C0.04000
T05C0.08661
T06C0.09843
%
T01
X172595Y126500
X175095Y151500
X195095Y151500
X172595Y189000
X167595Y189000
X137595Y186500
X82595Y186500
X152595Y246500
X140095Y286500
X95095Y254000
X202595Y206500
X220095Y206500
X220095Y214000
X247595Y189000
X275095Y186500
X280095Y186500
X277595Y171500
X272595Y171500
X272595Y166500
X277595Y166500
X282595Y166500
X282595Y171500
X280095Y151500
X275095Y139000
X278155Y136435
X305095Y151500
X317595Y186500
X327595Y206500
X302595Y221500
X297595Y216500
X315095Y234000
X335095Y261500
X335095Y281500
X305095Y299000
X295095Y336500
X260095Y301989
X252595Y301989
X227595Y321500
X232595Y346500
X207595Y284000
X222595Y261500
X227595Y261500
X252595Y266500
X272595Y241500
X367595Y161500
X375095Y229000
X371084Y249000
X372595Y276500
T02
X370095Y346500
X360095Y346500
X385095Y346500
X395095Y346500
X287631Y355464
X280560Y362536
X268631Y372964
X261560Y380036
X242595Y376500
X232595Y376500
X217595Y376500
X207595Y376500
X188631Y380036
X181560Y372964
X171131Y362536
X164060Y355464
X92595Y346500
X82595Y346500
X67595Y346500
X57595Y346500
T03
X105095Y316500
X105095Y306500
X115095Y306500
X115095Y316500
X115095Y296500
X105095Y296500
X105095Y286500
X115095Y286500
X115095Y276500
X105095Y276500
X105095Y266500
X115095Y266500
X115095Y256500
X105095Y256500
X105095Y246500
X115095Y246500
X115095Y236500
X105095Y236500
X105095Y226500
X105095Y216500
X115095Y216500
X115095Y226500
X115095Y206500
X105095Y206500
X105095Y196500
X115095Y196500
X115095Y186500
X105095Y186500
X105095Y176500
X115095Y176500
X115095Y166500
X105095Y166500
X105095Y156500
X115095Y156500
X115095Y146500
X105095Y146500
X105095Y136500
X115095Y136500
X345095Y136500
X345095Y146500
X345095Y156500
X345095Y166500
X345095Y176500
X345095Y186500
X345095Y196500
X345095Y206500
X345095Y216500
X345095Y226500
X345095Y236500
X345095Y246500
X345095Y256500
X345095Y266500
X345095Y276500
X345095Y286500
X345095Y296500
X345095Y306500
X345095Y316500
X355095Y316500
X355095Y306500
X355095Y296500
X355095Y286500
X355095Y276500
X355095Y266500
X355095Y256500
X355095Y246500
X355095Y236500
X355095Y226500
X355095Y216500
X355095Y206500
X355095Y196500
X355095Y186500
X355095Y176500
X355095Y166500
X355095Y156500
X355095Y146500
X355095Y136500
T04
X387595Y181500
X387595Y191500
X387595Y201500
X387595Y211500
X387595Y221500
X387595Y231500
X302595Y206500
X292595Y206500
X282595Y206500
X272595Y206500
X262595Y206500
X252595Y206500
X242595Y206500
X232595Y206500
X232595Y231500
X242595Y231500
X252595Y231500
X262595Y231500
X272595Y231500
X197595Y144000
X187595Y144000
X177595Y144000
X177595Y134000
X187595Y134000
X197595Y134000
X217595Y121500
X217595Y111500
X237595Y111500
X237595Y121500
X285095Y131500
X285095Y141500
X295095Y141500
X295095Y131500
X305095Y131500
X305095Y141500
T05
X84012Y124610
X87595Y369000
X62595Y369000
X152595Y374000
X170095Y389000
T06
X84012Y26185
X84012Y97051
X363540Y97051
X363540Y124610
X363540Y26185
M30
